<svg xmlns="http://www.w3.org/2000/svg" viewBox="0 0 400 250" width="400" height="250">
  <defs>
    <linearGradient id="bg1" x1="0%" y1="0%" x2="100%" y2="100%">
      <stop offset="0%" style="stop-color:#020B17"/>
      <stop offset="100%" style="stop-color:#0C2C54"/>
    </linearGradient>
  </defs>
  <rect width="400" height="250" fill="url(#bg1)"/>
  <!-- Apartment building -->
  <rect x="120" y="70" width="160" height="140" fill="#0C2C54" stroke="#1E3A5F" stroke-width="1.5"/>
  <!-- Windows grid -->
  <rect x="135" y="85" width="25" height="20" fill="#D4AF37" opacity="0.8"/>
  <rect x="170" y="85" width="25" height="20" fill="#D4AF37" opacity="0.5"/>
  <rect x="205" y="85" width="25" height="20" fill="#D4AF37" opacity="0.9"/>
  <rect x="240" y="85" width="25" height="20" fill="#D4AF37" opacity="0.4"/>
  <rect x="135" y="115" width="25" height="20" fill="#D4AF37" opacity="0.6"/>
  <rect x="170" y="115" width="25" height="20" fill="#D4AF37" opacity="0.9"/>
  <rect x="205" y="115" width="25" height="20" fill="#D4AF37" opacity="0.7"/>
  <rect x="240" y="115" width="25" height="20" fill="#D4AF37" opacity="0.3"/>
  <rect x="135" y="145" width="25" height="20" fill="#D4AF37" opacity="0.8"/>
  <rect x="170" y="145" width="25" height="20" fill="#D4AF37" opacity="0.5"/>
  <rect x="205" y="145" width="25" height="20" fill="#D4AF37" opacity="1"/>
  <rect x="240" y="145" width="25" height="20" fill="#D4AF37" opacity="0.6"/>
  <!-- Door -->
  <rect x="180" y="185" width="40" height="25" fill="#1E3A5F"/>
  <rect x="183" y="188" width="15" height="20" fill="#0A1F35"/>
  <rect x="202" y="188" width="15" height="20" fill="#0A1F35"/>
  <!-- Ground -->
  <rect x="0" y="210" width="400" height="40" fill="#050E1A"/>
  <!-- Stars -->
  <circle cx="50" cy="40" r="1.5" fill="#D4AF37" opacity="0.7"/>
  <circle cx="330" cy="25" r="1" fill="#D4AF37" opacity="0.5"/>
  <circle cx="80" cy="20" r="1" fill="white" opacity="0.4"/>
  <circle cx="360" cy="55" r="1.5" fill="white" opacity="0.3"/>
  <!-- Moon -->
  <circle cx="350" cy="35" r="18" fill="#0C2C54"/>
  <circle cx="358" cy="28" r="14" fill="#0A1A2E"/>
</svg>
