<svg xmlns="http://www.w3.org/2000/svg" width="400" height="250" viewBox="0 0 400 250"><defs><linearGradient id="bg1" x1="0%" x2="100%" y1="0%" y2="100%"><stop offset="0%" style="stop-color:#020b17"/><stop offset="100%" style="stop-color:#0c2c54"/></linearGradient></defs><rect width="400" height="250" fill="url(#bg1)"/><rect width="160" height="140" x="120" y="70" fill="#0C2C54" stroke="#1E3A5F" stroke-width="1.5"/><rect width="25" height="20" x="135" y="85" fill="#D4AF37" opacity=".8"/><rect width="25" height="20" x="170" y="85" fill="#D4AF37" opacity=".5"/><rect width="25" height="20" x="205" y="85" fill="#D4AF37" opacity=".9"/><rect width="25" height="20" x="240" y="85" fill="#D4AF37" opacity=".4"/><rect width="25" height="20" x="135" y="115" fill="#D4AF37" opacity=".6"/><rect width="25" height="20" x="170" y="115" fill="#D4AF37" opacity=".9"/><rect width="25" height="20" x="205" y="115" fill="#D4AF37" opacity=".7"/><rect width="25" height="20" x="240" y="115" fill="#D4AF37" opacity=".3"/><rect width="25" height="20" x="135" y="145" fill="#D4AF37" opacity=".8"/><rect width="25" height="20" x="170" y="145" fill="#D4AF37" opacity=".5"/><rect width="25" height="20" x="205" y="145" fill="#D4AF37" opacity="1"/><rect width="25" height="20" x="240" y="145" fill="#D4AF37" opacity=".6"/><rect width="40" height="25" x="180" y="185" fill="#1E3A5F"/><rect width="15" height="20" x="183" y="188" fill="#0A1F35"/><rect width="15" height="20" x="202" y="188" fill="#0A1F35"/><rect width="400" height="40" x="0" y="210" fill="#050E1A"/><circle cx="50" cy="40" r="1.5" fill="#D4AF37" opacity=".7"/><circle cx="330" cy="25" r="1" fill="#D4AF37" opacity=".5"/><circle cx="80" cy="20" r="1" fill="#fff" opacity=".4"/><circle cx="360" cy="55" r="1.5" fill="#fff" opacity=".3"/><circle cx="350" cy="35" r="18" fill="#0C2C54"/><circle cx="358" cy="28" r="14" fill="#0A1A2E"/></svg>