<svg xmlns="http://www.w3.org/2000/svg" viewBox="0 0 400 250" width="400" height="250">
  <defs>
    <linearGradient id="bg2" x1="0%" y1="0%" x2="100%" y2="100%">
      <stop offset="0%" style="stop-color:#031120"/>
      <stop offset="100%" style="stop-color:#0A2040"/>
    </linearGradient>
    <linearGradient id="sky2" x1="0%" y1="0%" x2="0%" y2="100%">
      <stop offset="0%" style="stop-color:#020A18"/>
      <stop offset="100%" style="stop-color:#0C2C54"/>
    </linearGradient>
  </defs>
  <rect width="400" height="250" fill="url(#sky2)"/>
  <!-- Sea/water -->
  <rect x="0" y="185" width="400" height="65" fill="#051525" opacity="0.9"/>
  <path d="M0 190 Q50 183 100 190 Q150 197 200 190 Q250 183 300 190 Q350 197 400 190 L400 250 L0 250 Z" fill="#061E3A" opacity="0.8"/>
  <!-- Villa main body -->
  <rect x="100" y="120" width="200" height="80" fill="#0E2E50" stroke="#1E3A5F" stroke-width="1.5"/>
  <!-- Roof triangle -->
  <polygon points="85,120 200,50 315,120" fill="#0A2040" stroke="#D4AF37" stroke-width="1.5"/>
  <!-- Chimney -->
  <rect x="230" y="60" width="15" height="30" fill="#0C2C54" stroke="#1E3A5F" stroke-width="1"/>
  <!-- Windows -->
  <rect x="120" y="135" width="40" height="35" fill="#D4AF37" opacity="0.3"/>
  <rect x="122" y="137" width="17" height="31" fill="#D4AF37" opacity="0.6"/>
  <rect x="141" y="137" width="17" height="31" fill="#D4AF37" opacity="0.4"/>
  <rect x="240" y="135" width="40" height="35" fill="#D4AF37" opacity="0.3"/>
  <rect x="242" y="137" width="17" height="31" fill="#D4AF37" opacity="0.7"/>
  <rect x="261" y="137" width="17" height="31" fill="#D4AF37" opacity="0.5"/>
  <!-- Door -->
  <rect x="177" y="155" width="46" height="45" fill="#081828"/>
  <rect x="179" y="157" width="20" height="41" fill="#071525"/>
  <rect x="203" y="157" width="18" height="41" fill="#061420"/>
  <circle cx="202" cy="178" r="3" fill="#D4AF37"/>
  <!-- Garden/trees -->
  <ellipse cx="70" cy="185" rx="25" ry="35" fill="#061E20" opacity="0.8"/>
  <rect x="67" y="185" width="6" height="15" fill="#040F10"/>
  <ellipse cx="330" cy="185" rx="22" ry="30" fill="#061E20" opacity="0.8"/>
  <rect x="327" y="185" width="6" height="15" fill="#040F10"/>
  <!-- Stars -->
  <circle cx="40" cy="30" r="1.5" fill="white" opacity="0.4"/>
  <circle cx="160" cy="20" r="1" fill="#D4AF37" opacity="0.6"/>
  <circle cx="360" cy="35" r="1.5" fill="white" opacity="0.3"/>
  <circle cx="290" cy="15" r="1" fill="white" opacity="0.4"/>
</svg>
