<svg xmlns="http://www.w3.org/2000/svg" width="400" height="250" viewBox="0 0 400 250"><defs><linearGradient id="bg2" x1="0%" x2="100%" y1="0%" y2="100%"><stop offset="0%" style="stop-color:#031120"/><stop offset="100%" style="stop-color:#0a2040"/></linearGradient><linearGradient id="sky2" x1="0%" x2="0%" y1="0%" y2="100%"><stop offset="0%" style="stop-color:#020a18"/><stop offset="100%" style="stop-color:#0c2c54"/></linearGradient></defs><rect width="400" height="250" fill="url(#sky2)"/><rect width="400" height="65" x="0" y="185" fill="#051525" opacity=".9"/><path fill="#061E3A" d="M0 190 Q50 183 100 190 Q150 197 200 190 Q250 183 300 190 Q350 197 400 190 L400 250 L0 250 Z" opacity=".8"/><rect width="200" height="80" x="100" y="120" fill="#0E2E50" stroke="#1E3A5F" stroke-width="1.5"/><polygon fill="#0A2040" stroke="#D4AF37" stroke-width="1.5" points="85 120 200 50 315 120"/><rect width="15" height="30" x="230" y="60" fill="#0C2C54" stroke="#1E3A5F" stroke-width="1"/><rect width="40" height="35" x="120" y="135" fill="#D4AF37" opacity=".3"/><rect width="17" height="31" x="122" y="137" fill="#D4AF37" opacity=".6"/><rect width="17" height="31" x="141" y="137" fill="#D4AF37" opacity=".4"/><rect width="40" height="35" x="240" y="135" fill="#D4AF37" opacity=".3"/><rect width="17" height="31" x="242" y="137" fill="#D4AF37" opacity=".7"/><rect width="17" height="31" x="261" y="137" fill="#D4AF37" opacity=".5"/><rect width="46" height="45" x="177" y="155" fill="#081828"/><rect width="20" height="41" x="179" y="157" fill="#071525"/><rect width="18" height="41" x="203" y="157" fill="#061420"/><circle cx="202" cy="178" r="3" fill="#D4AF37"/><ellipse cx="70" cy="185" fill="#061E20" opacity=".8" rx="25" ry="35"/><rect width="6" height="15" x="67" y="185" fill="#040F10"/><ellipse cx="330" cy="185" fill="#061E20" opacity=".8" rx="22" ry="30"/><rect width="6" height="15" x="327" y="185" fill="#040F10"/><circle cx="40" cy="30" r="1.5" fill="#fff" opacity=".4"/><circle cx="160" cy="20" r="1" fill="#D4AF37" opacity=".6"/><circle cx="360" cy="35" r="1.5" fill="#fff" opacity=".3"/><circle cx="290" cy="15" r="1" fill="#fff" opacity=".4"/></svg>