<svg xmlns="http://www.w3.org/2000/svg" width="400" height="250" viewBox="0 0 400 250"><defs><linearGradient id="bg3" x1="0%" x2="100%" y1="0%" y2="100%"><stop offset="0%" style="stop-color:#020c1e"/><stop offset="100%" style="stop-color:#0a2a4a"/></linearGradient></defs><rect width="400" height="250" fill="url(#bg3)"/><rect width="40" height="80" x="20" y="140" fill="#061524" opacity=".7"/><rect width="20" height="20" x="30" y="120" fill="#061524" opacity=".7"/><rect width="50" height="110" x="70" y="110" fill="#040F1E" opacity=".8"/><rect width="50" height="90" x="330" y="130" fill="#040F1E" opacity=".7"/><rect width="20" height="20" x="345" y="110" fill="#040F1E" opacity=".7"/><rect width="140" height="160" x="130" y="60" fill="#0C2C54" stroke="#1A3A6A" stroke-width="2"/><line x1="130" x2="270" y1="100" y2="100" stroke="#1A3A6A" stroke-width=".5"/><line x1="130" x2="270" y1="140" y2="140" stroke="#1A3A6A" stroke-width=".5"/><line x1="130" x2="270" y1="180" y2="180" stroke="#1A3A6A" stroke-width=".5"/><rect width="20" height="22" x="145" y="70" fill="#D4AF37" opacity=".9"/><rect width="20" height="22" x="175" y="70" fill="#D4AF37" opacity=".4"/><rect width="20" height="22" x="205" y="70" fill="#D4AF37" opacity=".7"/><rect width="20" height="22" x="235" y="70" fill="#D4AF37" opacity=".6"/><rect width="20" height="22" x="145" y="110" fill="#D4AF37" opacity=".5"/><rect width="20" height="22" x="175" y="110" fill="#D4AF37" opacity=".9"/><rect width="20" height="22" x="205" y="110" fill="#D4AF37" opacity=".3"/><rect width="20" height="22" x="235" y="110" fill="#D4AF37" opacity=".8"/><rect width="20" height="22" x="145" y="150" fill="#D4AF37" opacity=".7"/><rect width="20" height="22" x="175" y="150" fill="#D4AF37" opacity=".4"/><rect width="20" height="22" x="205" y="150" fill="#D4AF37" opacity=".9"/><rect width="20" height="22" x="235" y="150" fill="#D4AF37" opacity=".5"/><rect width="24" height="6" x="143" y="92" fill="#1A3A6A"/><rect width="24" height="6" x="233" y="92" fill="#1A3A6A"/><rect width="24" height="6" x="143" y="132" fill="#1A3A6A"/><rect width="24" height="6" x="233" y="172" fill="#1A3A6A"/><rect width="30" height="25" x="185" y="195" fill="#081828"/><rect width="400" height="32" x="0" y="218" fill="#030C18"/><circle cx="50" cy="25" r="1.5" fill="#D4AF37" opacity=".6"/><circle cx="350" cy="30" r="1" fill="#fff" opacity=".5"/><circle cx="100" cy="40" r="1" fill="#fff" opacity=".3"/></svg>