<svg xmlns="http://www.w3.org/2000/svg" width="400" height="250" viewBox="0 0 400 250"><defs><linearGradient id="bg4" x1="0%" x2="100%" y1="0%" y2="100%"><stop offset="0%" style="stop-color:#030d1e"/><stop offset="100%" style="stop-color:#0b2845"/></linearGradient></defs><rect width="400" height="250" fill="url(#bg4)"/><rect width="240" height="145" x="80" y="80" fill="#0A2040" stroke="#1E3A5F" stroke-width="2"/><rect width="8" height="145" x="90" y="80" fill="#0E2A50"/><rect width="8" height="145" x="150" y="80" fill="#0E2A50"/><rect width="8" height="145" x="242" y="80" fill="#0E2A50"/><rect width="8" height="145" x="302" y="80" fill="#0E2A50"/><rect width="240" height="4" x="80" y="118" fill="#1A3C6E"/><rect width="240" height="4" x="80" y="158" fill="#1A3C6E"/><rect width="240" height="6" x="80" y="80" fill="#D4AF37" opacity=".3"/><rect width="35" height="22" x="105" y="90" fill="#D4AF37" opacity=".5" rx="2"/><rect width="66" height="22" x="165" y="90" fill="#D4AF37" opacity=".4" rx="2"/><rect width="35" height="22" x="255" y="90" fill="#D4AF37" opacity=".7" rx="2"/><rect width="35" height="22" x="105" y="130" fill="#D4AF37" opacity=".8" rx="2"/><rect width="30" height="22" x="165" y="130" fill="#D4AF37" opacity=".5" rx="2"/><rect width="30" height="22" x="205" y="130" fill="#D4AF37" opacity=".3" rx="2"/><rect width="35" height="22" x="255" y="130" fill="#D4AF37" opacity=".9" rx="2"/><rect width="35" height="22" x="105" y="168" fill="#D4AF37" opacity=".4" rx="2"/><rect width="30" height="22" x="165" y="168" fill="#D4AF37" opacity=".7" rx="2"/><rect width="30" height="22" x="205" y="168" fill="#D4AF37" opacity=".5" rx="2"/><rect width="35" height="22" x="255" y="168" fill="#D4AF37" opacity=".6" rx="2"/><path fill="#071525" d="M175 225 L175 195 Q200 175 225 195 L225 225 Z"/><path fill="#040F1C" d="M178 225 L178 196 Q200 179 222 196 L222 225 Z"/><rect width="70" height="5" x="165" y="223" fill="#0A2040"/><rect width="80" height="5" x="160" y="228" fill="#0C2A50"/><ellipse cx="110" cy="225" fill="#061A0A" opacity=".7" rx="30" ry="15"/><ellipse cx="290" cy="225" fill="#061A0A" opacity=".7" rx="30" ry="15"/><rect width="400" height="20" x="0" y="230" fill="#020C18"/><circle cx="55" cy="35" r="1.5" fill="#D4AF37" opacity=".5"/><circle cx="350" cy="20" r="1" fill="#fff" opacity=".4"/><circle cx="200" cy="25" r="1" fill="#fff" opacity=".3"/></svg>