<svg xmlns="http://www.w3.org/2000/svg" width="400" height="250" viewBox="0 0 400 250"><defs><linearGradient id="bg5" x1="0%" x2="50%" y1="0%" y2="100%"><stop offset="0%" style="stop-color:#020810"/><stop offset="100%" style="stop-color:#08203a"/></linearGradient><linearGradient id="tower5" x1="0%" x2="100%" y1="0%" y2="0%"><stop offset="0%" style="stop-color:#0a2a50"/><stop offset="50%" style="stop-color:#0e3260"/><stop offset="100%" style="stop-color:#0a2a50"/></linearGradient></defs><rect width="400" height="250" fill="url(#bg5)"/><ellipse cx="200" cy="250" fill="#D4AF37" opacity=".04" rx="200" ry="60"/><rect width="35" height="90" x="20" y="160" fill="#061830" opacity=".6"/><rect width="30" height="110" x="60" y="140" fill="#050F24" opacity=".6"/><rect width="40" height="100" x="310" y="150" fill="#061830" opacity=".6"/><rect width="30" height="120" x="355" y="130" fill="#050F24" opacity=".6"/><rect width="90" height="220" x="155" y="10" fill="url(#tower5)" stroke="#D4AF37" stroke-width=".8" opacity=".9"/><line x1="155" x2="245" y1="50" y2="50" stroke="#D4AF37" stroke-width=".5" opacity=".4"/><line x1="155" x2="245" y1="90" y2="90" stroke="#D4AF37" stroke-width=".5" opacity=".4"/><line x1="155" x2="245" y1="130" y2="130" stroke="#D4AF37" stroke-width=".5" opacity=".4"/><line x1="155" x2="245" y1="170" y2="170" stroke="#D4AF37" stroke-width=".5" opacity=".4"/><line x1="155" x2="245" y1="210" y2="210" stroke="#D4AF37" stroke-width=".5" opacity=".4"/><rect width="12" height="22" x="165" y="20" fill="#D4AF37" opacity=".7"/><rect width="12" height="22" x="184" y="20" fill="#D4AF37" opacity=".4"/><rect width="12" height="22" x="203" y="20" fill="#D4AF37" opacity=".8"/><rect width="12" height="22" x="222" y="20" fill="#D4AF37" opacity=".5"/><rect width="12" height="22" x="165" y="58" fill="#D4AF37" opacity=".5"/><rect width="12" height="22" x="184" y="58" fill="#D4AF37" opacity=".9"/><rect width="12" height="22" x="203" y="58" fill="#D4AF37" opacity=".3"/><rect width="12" height="22" x="222" y="58" fill="#D4AF37" opacity=".7"/><rect width="12" height="22" x="165" y="98" fill="#D4AF37" opacity=".8"/><rect width="12" height="22" x="184" y="98" fill="#D4AF37" opacity=".5"/><rect width="12" height="22" x="203" y="98" fill="#D4AF37" opacity="1"/><rect width="12" height="22" x="222" y="98" fill="#D4AF37" opacity=".4"/><rect width="12" height="22" x="165" y="138" fill="#D4AF37" opacity=".6"/><rect width="12" height="22" x="184" y="138" fill="#D4AF37" opacity=".8"/><rect width="12" height="22" x="203" y="138" fill="#D4AF37" opacity=".5"/><rect width="12" height="22" x="222" y="138" fill="#D4AF37" opacity=".9"/><rect width="12" height="22" x="165" y="178" fill="#D4AF37" opacity=".4"/><rect width="12" height="22" x="184" y="178" fill="#D4AF37" opacity=".7"/><rect width="12" height="22" x="203" y="178" fill="#D4AF37" opacity=".6"/><rect width="12" height="22" x="222" y="178" fill="#D4AF37" opacity=".3"/><polygon fill="#D4AF37" points="200 0 210 12 190 12" opacity=".6"/><rect width="45" height="150" x="110" y="80" fill="#0A2845" stroke="#162840" stroke-width="1"/><rect width="45" height="150" x="245" y="80" fill="#0A2845" stroke="#162840" stroke-width="1"/><rect width="400" height="22" x="0" y="228" fill="#030C18"/><rect width="90" height="10" x="155" y="228" fill="#D4AF37" opacity=".05"/><circle cx="40" cy="20" r="1.5" fill="#D4AF37" opacity=".8"/><circle cx="360" cy="15" r="1.5" fill="#D4AF37" opacity=".6"/><circle cx="100" cy="45" r="1" fill="#fff" opacity=".4"/><circle cx="310" cy="30" r="1" fill="#fff" opacity=".3"/></svg>