<svg xmlns="http://www.w3.org/2000/svg" width="400" height="250" viewBox="0 0 400 250"><defs><linearGradient id="sky6" x1="0%" x2="0%" y1="0%" y2="100%"><stop offset="0%" style="stop-color:#030d1e"/><stop offset="60%" style="stop-color:#082035"/><stop offset="100%" style="stop-color:#0a1a10"/></linearGradient><linearGradient id="land6" x1="0%" x2="0%" y1="0%" y2="100%"><stop offset="0%" style="stop-color:#0a1e0a"/><stop offset="100%" style="stop-color:#050e05"/></linearGradient></defs><rect width="400" height="250" fill="url(#sky6)"/><polygon fill="#061018" points="0 160 80 80 160 160" opacity=".7"/><polygon fill="#040C14" points="80 160 180 60 280 160" opacity=".8"/><polygon fill="#061018" points="220 160 330 90 400 160" opacity=".7"/><rect width="400" height="95" x="0" y="155" fill="url(#land6)"/><rect width="8" height="40" x="60" y="140" fill="#D4AF37" opacity=".7"/><rect width="8" height="40" x="332" y="140" fill="#D4AF37" opacity=".7"/><rect width="8" height="12" x="60" y="218" fill="#D4AF37" opacity=".7"/><rect width="8" height="12" x="332" y="218" fill="#D4AF37" opacity=".7"/><line x1="64" x2="336" y1="148" y2="148" stroke="#D4AF37" stroke-dasharray="8 6" stroke-width="1.5" opacity=".6"/><line x1="64" x2="336" y1="222" y2="222" stroke="#D4AF37" stroke-dasharray="8 6" stroke-width="1.5" opacity=".6"/><line x1="64" x2="64" y1="148" y2="222" stroke="#D4AF37" stroke-dasharray="8 6" stroke-width="1.5" opacity=".6"/><line x1="336" x2="336" y1="148" y2="222" stroke="#D4AF37" stroke-dasharray="8 6" stroke-width="1.5" opacity=".6"/><ellipse cx="130" cy="185" fill="#0D2A0D" opacity=".6" rx="20" ry="8"/><ellipse cx="200" cy="195" fill="#0D280D" opacity=".5" rx="25" ry="9"/><ellipse cx="280" cy="180" fill="#0D2A0D" opacity=".6" rx="18" ry="7"/><ellipse cx="160" cy="210" fill="#0B240B" opacity=".5" rx="15" ry="6"/><ellipse cx="250" cy="210" fill="#0B240B" opacity=".4" rx="20" ry="7"/><rect width="40" height="28" x="180" y="155" fill="#D4AF37" opacity=".85" rx="3"/><rect width="6" height="18" x="197" y="183" fill="#D4AF37" opacity=".7"/><text x="200" y="175" fill="#030D1E" font-family="sans-serif" font-size="10" font-weight="bold" text-anchor="middle">زمین</text><ellipse cx="70" cy="148" fill="#0A2010" opacity=".7" rx="18" ry="25"/><ellipse cx="330" cy="148" fill="#0A2010" opacity=".7" rx="18" ry="25"/><circle cx="50" cy="30" r="1.5" fill="#fff" opacity=".4"/><circle cx="350" cy="25" r="1" fill="#D4AF37" opacity=".6"/><circle cx="200" cy="20" r="1" fill="#fff" opacity=".3"/><circle cx="100" cy="50" r="1" fill="#fff" opacity=".3"/></svg>